<svg width="124" height="54" viewBox="0 0 124 54" fill="none" xmlns="http://www.w3.org/2000/svg">
<path d="M2.528 7H3.584V30.072H11.008V31H2.528V7ZM14.9515 13.304C14.6528 13.304 14.3862 13.1973 14.1515 12.984C13.9382 12.7707 13.8315 12.504 13.8315 12.184C13.8315 11.8853 13.9382 11.6293 14.1515 11.416C14.3862 11.2027 14.6528 11.096 14.9515 11.096C15.2502 11.096 15.5062 11.2027 15.7195 11.416C15.9542 11.6293 16.0715 11.8853 16.0715 12.184C16.0715 12.504 15.9542 12.7707 15.7195 12.984C15.5062 13.1973 15.2502 13.304 14.9515 13.304ZM14.4395 16.6H15.4635V31H14.4395V16.6ZM32.5548 16.6L25.4828 31.416L18.3788 16.6H19.4988L25.4828 29.08L31.4348 16.6H32.5548ZM40.9578 31.512C39.5071 31.512 38.1951 31.16 37.0218 30.456C35.8484 29.7307 34.9311 28.7813 34.2698 27.608C33.6084 26.4133 33.2778 25.1227 33.2778 23.736C33.2778 22.3707 33.6084 21.1013 34.2698 19.928C34.9524 18.7547 35.8698 17.8267 37.0218 17.144C38.1951 16.44 39.4964 16.088 40.9258 16.088C42.3338 16.088 43.6138 16.44 44.7658 17.144C45.9391 17.8267 46.8564 18.7547 47.5178 19.928C48.1791 21.1013 48.5098 22.3707 48.5098 23.736C48.5098 25.1653 48.1898 26.4773 47.5498 27.672C46.9098 28.8453 46.0138 29.784 44.8618 30.488C43.7311 31.1707 42.4298 31.512 40.9578 31.512ZM40.9578 30.616C42.1738 30.616 43.2831 30.3067 44.2858 29.688C45.2884 29.0693 46.0671 28.248 46.6218 27.224C47.1978 26.1787 47.4858 25.0373 47.4858 23.8C47.4858 22.584 47.1978 21.4533 46.6218 20.408C46.0458 19.3627 45.2564 18.5307 44.2538 17.912C43.2511 17.2933 42.1418 16.984 40.9258 16.984C39.7098 16.984 38.5898 17.304 37.5658 17.944C36.5631 18.5627 35.7631 19.3947 35.1658 20.44C34.5898 21.4853 34.3018 22.616 34.3018 23.832C34.3018 25.048 34.5898 26.1787 35.1658 27.224C35.7631 28.248 36.5631 29.0693 37.5658 29.688C38.5898 30.3067 39.7204 30.616 40.9578 30.616ZM51.391 16.6H52.415V19.928C52.8417 18.8827 53.4603 18.0613 54.271 17.464C55.103 16.8667 56.0417 16.568 57.087 16.568C57.7483 16.568 58.4203 16.7067 59.103 16.984V18.168C58.4843 17.6987 57.791 17.464 57.023 17.464C56.255 17.464 55.5083 17.6987 54.783 18.168C54.079 18.6373 53.503 19.2667 53.055 20.056C52.6283 20.8453 52.415 21.688 52.415 22.584V31H51.391V16.6ZM61.641 16.6H62.665V19.8C63.1343 18.7333 63.9343 17.88 65.065 17.24C66.1957 16.5787 67.4437 16.248 68.809 16.248C70.5797 16.248 71.977 16.8133 73.001 17.944C74.0463 19.0533 74.569 20.6107 74.569 22.616V31H73.545V22.616C73.545 20.888 73.1183 19.544 72.265 18.584C71.433 17.624 70.2597 17.144 68.745 17.144C67.6357 17.144 66.6117 17.4 65.673 17.912C64.7557 18.4027 64.0197 19.0853 63.465 19.96C62.9317 20.8347 62.665 21.8267 62.665 22.936V31H61.641V16.6ZM85.4578 31.512C84.0071 31.512 82.6951 31.16 81.5218 30.456C80.3484 29.7307 79.4311 28.7813 78.7698 27.608C78.1084 26.4133 77.7778 25.1227 77.7778 23.736C77.7778 22.3707 78.1084 21.1013 78.7698 19.928C79.4524 18.7547 80.3698 17.8267 81.5218 17.144C82.6951 16.44 83.9964 16.088 85.4258 16.088C86.8338 16.088 88.1138 16.44 89.2658 17.144C90.4391 17.8267 91.3564 18.7547 92.0178 19.928C92.6791 21.1013 93.0098 22.3707 93.0098 23.736C93.0098 25.1653 92.6898 26.4773 92.0498 27.672C91.4098 28.8453 90.5138 29.784 89.3618 30.488C88.2311 31.1707 86.9298 31.512 85.4578 31.512ZM85.4578 30.616C86.6738 30.616 87.7831 30.3067 88.7858 29.688C89.7884 29.0693 90.5671 28.248 91.1218 27.224C91.6978 26.1787 91.9858 25.0373 91.9858 23.8C91.9858 22.584 91.6978 21.4533 91.1218 20.408C90.5458 19.3627 89.7564 18.5307 88.7538 17.912C87.7511 17.2933 86.6418 16.984 85.4258 16.984C84.2098 16.984 83.0898 17.304 82.0658 17.944C81.0631 18.5627 80.2631 19.3947 79.6658 20.44C79.0898 21.4853 78.8018 22.616 78.8018 23.832C78.8018 25.048 79.0898 26.1787 79.6658 27.224C80.2631 28.248 81.0631 29.0693 82.0658 29.688C83.0898 30.3067 84.2204 30.616 85.4578 30.616Z" fill="#FFFACD"/>
<path d="M73.528 29H74.584V52.072H82.008V53H73.528V29ZM85.9515 35.304C85.6528 35.304 85.3862 35.1973 85.1515 34.984C84.9382 34.7707 84.8315 34.504 84.8315 34.184C84.8315 33.8853 84.9382 33.6293 85.1515 33.416C85.3862 33.2027 85.6528 33.096 85.9515 33.096C86.2502 33.096 86.5062 33.2027 86.7195 33.416C86.9542 33.6293 87.0715 33.8853 87.0715 34.184C87.0715 34.504 86.9542 34.7707 86.7195 34.984C86.5062 35.1973 86.2502 35.304 85.9515 35.304ZM85.4395 38.6H86.4635V53H85.4395V38.6ZM103.555 38.6L96.4828 53.416L89.3788 38.6H90.4988L96.4828 51.08L102.435 38.6H103.555ZM112.118 52.488C113.227 52.488 114.283 52.2 115.286 51.624C116.288 51.048 117.12 50.2587 117.782 49.256V50.888C116.992 51.7627 116.128 52.4027 115.19 52.808C114.251 53.192 113.184 53.384 111.99 53.384C110.667 53.384 109.419 53.032 108.246 52.328C107.094 51.624 106.166 50.6853 105.462 49.512C104.779 48.3387 104.438 47.0907 104.438 45.768C104.438 44.3387 104.779 43.0587 105.462 41.928C106.144 40.776 107.072 39.88 108.246 39.24C109.44 38.6 110.763 38.28 112.214 38.28C114.432 38.28 116.32 39.1547 117.878 40.904L107.83 50.824C108.534 51.4 109.216 51.8267 109.878 52.104C110.539 52.36 111.286 52.488 112.118 52.488ZM105.462 45.672C105.462 47.4427 106.048 48.9573 107.222 50.216L116.598 40.904C115.894 40.2853 115.211 39.848 114.55 39.592C113.888 39.3147 113.099 39.176 112.182 39.176C110.88 39.176 109.718 39.464 108.694 40.04C107.691 40.5947 106.902 41.3627 106.326 42.344C105.75 43.3253 105.462 44.4347 105.462 45.672Z" fill="#FFFACD"/>
<path d="M113.644 19.0731C112.02 19.6216 111.479 16.8792 111.479 16.8792C111.479 16.8792 112.217 16.1283 111.659 15.4603C112.53 14.5783 112.021 14.1361 112.021 14.1361C111.303 13.4087 110.329 13 109.314 13C108.299 13 107.325 13.4087 106.607 14.1361C106.448 14.2959 106.306 14.4722 106.184 14.662C106.137 14.7288 106.096 14.797 106.054 14.8653L106.043 14.8862C105.826 15.2481 105.67 15.6436 105.58 16.0569C105.46 16.3044 105.289 16.5681 104.983 16.8792C103.901 17.9761 101.194 16.3307 99.0283 18.5246C99.0061 18.5471 98.9938 18.5781 98.9755 18.6053C98.9035 18.6705 98.8277 18.7279 98.758 18.7992C96.2169 21.374 96.4589 25.7952 99.3001 28.6733C101.998 31.4079 106.068 31.7601 108.647 29.5809C108.692 29.5569 108.737 29.5336 108.774 29.4964C108.828 29.4405 108.87 29.3878 108.922 29.3335C108.962 29.2954 109.005 29.2613 109.045 29.2225C110.341 27.9084 110.838 26.3289 110.642 24.7145C110.59 23.9465 110.516 23.3445 110.94 22.9139C111.482 22.3655 113.106 22.9139 114.188 21.817C115.809 20.1708 114.671 18.7271 113.644 19.0731Z" fill="#FFFACD"/>
<path d="M108 17.4194L120.299 6L122 7.57986L109.701 19L108 17.4194Z" fill="#292F33"/>
<path d="M104.518 25.6069C105.871 26.6318 106.005 28.3943 105.929 29.42C105.897 29.8437 106.323 30.1407 106.673 29.9312C108.619 28.7626 110.167 26.8902 109.739 23.6286C109.655 23.0387 109.823 21.9295 111.464 21.6976C113.105 21.4648 113.698 20.8155 113.9 20.5057C114.017 20.3284 114.121 19.838 113.664 19.8203C113.207 19.8027 112.073 20.1783 111.058 18.9086C110.043 17.6389 109.874 17.1205 109.84 16.9238C109.806 16.7272 108.77 13.9591 107.923 15.4278C107.219 16.6486 106.436 19.0467 103.908 19.6711C102.879 19.9247 101.577 20.4777 101.201 21.2441C100.57 22.5314 101.551 23.4311 102.397 24.0395C103.243 24.647 104.518 25.6069 104.518 25.6069Z" fill="#393939"/>
<path d="M106.798 18.051L107.999 17L111 19.6257L109.8 20.676L106.798 18.051ZM103 21.3743L104.201 20.324L107.202 22.9497L106.001 24L103 21.3743Z" fill="#FFFACD"/>
<path d="M102 23.9113L118.915 7L119.326 7.41264L102.412 24.3239L102 23.9113ZM102.674 24.5858L119.589 7.6753L120 8.08794L103.086 25L102.674 24.5858Z" fill="#8E98A0"/>
<path d="M104.717 24.7574C105.094 25.0408 105.094 25.5041 104.717 25.7875C104.339 26.0708 103.721 26.0708 103.344 25.7875L101.283 24.2424C101.102 24.1055 101 23.9204 101 23.7274C101 23.5344 101.102 23.3493 101.283 23.2124H101.284C101.467 23.0764 101.713 23 101.971 23C102.228 23 102.475 23.0764 102.657 23.2124L104.717 24.7574Z" fill="#292F33"/>
<path d="M107 27C107.552 27 108 26.5523 108 26C108 25.4477 107.552 25 107 25C106.448 25 106 25.4477 106 26C106 26.5523 106.448 27 107 27Z" fill="#FFFACD"/>
<path d="M108 27.5C108 27.6326 107.947 27.7598 107.854 27.8536C107.76 27.9473 107.633 28 107.5 28C107.367 28 107.24 27.9473 107.146 27.8536C107.053 27.7598 107 27.6326 107 27.5C107 27.3674 107.053 27.2402 107.146 27.1464C107.24 27.0527 107.367 27 107.5 27C107.633 27 107.76 27.0527 107.854 27.1464C107.947 27.2402 108 27.3674 108 27.5Z" fill="#FFFACD"/>
<path d="M123.751 6.6839C123.911 6.82134 124 7.00734 124 7.20117C124 7.39501 123.91 7.58091 123.75 7.71817L120.265 9.78672C120.105 9.92333 119.888 10 119.662 10C119.436 10 119.219 9.92333 119.059 9.78672L117.249 8.23462C117.089 8.09718 117 7.91118 117 7.71734C117 7.5235 117.09 7.33761 117.25 7.20035L119.663 4.21328C119.823 4.07668 120.04 4 120.266 4C120.492 4 120.709 4.07668 120.869 4.21328L123.751 6.6839Z" fill="#FFFACD"/>
<path d="M121.5 11C121.776 11 122 10.7761 122 10.5C122 10.2239 121.776 10 121.5 10C121.224 10 121 10.2239 121 10.5C121 10.7761 121.224 11 121.5 11Z" fill="white"/>
<path d="M122.5 10C122.776 10 123 9.77614 123 9.5C123 9.22386 122.776 9 122.5 9C122.224 9 122 9.22386 122 9.5C122 9.77614 122.224 10 122.5 10Z" fill="white"/>
<path d="M117.5 6C117.776 6 118 5.77614 118 5.5C118 5.22386 117.776 5 117.5 5C117.224 5 117 5.22386 117 5.5C117 5.77614 117.224 6 117.5 6Z" fill="white"/>
<path d="M118.5 5C118.776 5 119 4.77614 119 4.5C119 4.22386 118.776 4 118.5 4C118.224 4 118 4.22386 118 4.5C118 4.77614 118.224 5 118.5 5Z" fill="white"/>
</svg>
